<svg width="81" height="74" viewBox="0 0 81 74" fill="none" xmlns="http://www.w3.org/2000/svg">
<g filter="url(#filter0_d_48_254)">
<rect x="6" width="69" height="63" rx="15" fill="#3E3D3D" fill-opacity="0.8"/>
<g filter="url(#filter1_d_48_254)">
<path d="M31.9375 34.0234C31.9375 33.8203 31.9062 33.638 31.8438 33.4766C31.7865 33.3099 31.6771 33.1589 31.5156 33.0234C31.3542 32.8828 31.1276 32.7448 30.8359 32.6094C30.5443 32.474 30.1667 32.3333 29.7031 32.1875C29.1875 32.0208 28.6979 31.8333 28.2344 31.625C27.776 31.4167 27.3698 31.1745 27.0156 30.8984C26.6667 30.6172 26.3906 30.2917 26.1875 29.9219C25.9896 29.5521 25.8906 29.1224 25.8906 28.6328C25.8906 28.1589 25.9948 27.7292 26.2031 27.3438C26.4115 26.9531 26.7031 26.6198 27.0781 26.3438C27.4531 26.0625 27.8958 25.8464 28.4062 25.6953C28.9219 25.5443 29.487 25.4688 30.1016 25.4688C30.9401 25.4688 31.6719 25.6198 32.2969 25.9219C32.9219 26.224 33.4062 26.638 33.75 27.1641C34.099 27.6901 34.2734 28.2917 34.2734 28.9688H31.9453C31.9453 28.6354 31.875 28.3438 31.7344 28.0938C31.599 27.8385 31.3906 27.638 31.1094 27.4922C30.8333 27.3464 30.4844 27.2734 30.0625 27.2734C29.6562 27.2734 29.3177 27.3359 29.0469 27.4609C28.776 27.5807 28.5729 27.7448 28.4375 27.9531C28.3021 28.1562 28.2344 28.3854 28.2344 28.6406C28.2344 28.8333 28.2812 29.0078 28.375 29.1641C28.474 29.3203 28.6198 29.4661 28.8125 29.6016C29.0052 29.737 29.2422 29.8646 29.5234 29.9844C29.8047 30.1042 30.1302 30.2214 30.5 30.3359C31.1198 30.5234 31.6641 30.7344 32.1328 30.9688C32.6068 31.2031 33.0026 31.4661 33.3203 31.7578C33.638 32.0495 33.8776 32.3802 34.0391 32.75C34.2005 33.1198 34.2812 33.5391 34.2812 34.0078C34.2812 34.5026 34.1849 34.9453 33.9922 35.3359C33.7995 35.7266 33.5208 36.0573 33.1562 36.3281C32.7917 36.599 32.3568 36.8047 31.8516 36.9453C31.3464 37.0859 30.7812 37.1562 30.1562 37.1562C29.5938 37.1562 29.0391 37.0833 28.4922 36.9375C27.9453 36.7865 27.4479 36.5599 27 36.2578C26.5573 35.9557 26.2031 35.5703 25.9375 35.1016C25.6719 34.6328 25.5391 34.0781 25.5391 33.4375H27.8906C27.8906 33.7917 27.9453 34.0911 28.0547 34.3359C28.1641 34.5807 28.3177 34.7786 28.5156 34.9297C28.7188 35.0807 28.9583 35.1901 29.2344 35.2578C29.5156 35.3255 29.8229 35.3594 30.1562 35.3594C30.5625 35.3594 30.8958 35.3021 31.1562 35.1875C31.4219 35.0729 31.6172 34.9141 31.7422 34.7109C31.8724 34.5078 31.9375 34.2786 31.9375 34.0234ZM45.2188 31.0469V31.5859C45.2188 32.4505 45.1016 33.2266 44.8672 33.9141C44.6328 34.6016 44.3021 35.1875 43.875 35.6719C43.4479 36.151 42.9375 36.5182 42.3438 36.7734C41.7552 37.0286 41.1016 37.1562 40.3828 37.1562C39.6693 37.1562 39.0156 37.0286 38.4219 36.7734C37.8333 36.5182 37.3229 36.151 36.8906 35.6719C36.4583 35.1875 36.1224 34.6016 35.8828 33.9141C35.6484 33.2266 35.5312 32.4505 35.5312 31.5859V31.0469C35.5312 30.1771 35.6484 29.401 35.8828 28.7188C36.1172 28.0312 36.4479 27.4453 36.875 26.9609C37.3073 26.4766 37.8177 26.1068 38.4062 25.8516C39 25.5964 39.6536 25.4688 40.3672 25.4688C41.0859 25.4688 41.7396 25.5964 42.3281 25.8516C42.9219 26.1068 43.4323 26.4766 43.8594 26.9609C44.2917 27.4453 44.625 28.0312 44.8594 28.7188C45.099 29.401 45.2188 30.1771 45.2188 31.0469ZM42.8516 31.5859V31.0312C42.8516 30.4271 42.7969 29.8958 42.6875 29.4375C42.5781 28.9792 42.4167 28.5938 42.2031 28.2812C41.9896 27.9688 41.7292 27.7344 41.4219 27.5781C41.1146 27.4167 40.763 27.3359 40.3672 27.3359C39.9714 27.3359 39.6198 27.4167 39.3125 27.5781C39.0104 27.7344 38.7526 27.9688 38.5391 28.2812C38.3307 28.5938 38.1719 28.9792 38.0625 29.4375C37.9531 29.8958 37.8984 30.4271 37.8984 31.0312V31.5859C37.8984 32.1849 37.9531 32.7161 38.0625 33.1797C38.1719 33.638 38.3333 34.026 38.5469 34.3438C38.7604 34.6562 39.0208 34.8932 39.3281 35.0547C39.6354 35.2161 39.987 35.2969 40.3828 35.2969C40.7786 35.2969 41.1302 35.2161 41.4375 35.0547C41.7448 34.8932 42.0026 34.6562 42.2109 34.3438C42.4193 34.026 42.5781 33.638 42.6875 33.1797C42.7969 32.7161 42.8516 32.1849 42.8516 31.5859ZM52.8281 34.0234C52.8281 33.8203 52.7969 33.638 52.7344 33.4766C52.6771 33.3099 52.5677 33.1589 52.4062 33.0234C52.2448 32.8828 52.0182 32.7448 51.7266 32.6094C51.4349 32.474 51.0573 32.3333 50.5938 32.1875C50.0781 32.0208 49.5885 31.8333 49.125 31.625C48.6667 31.4167 48.2604 31.1745 47.9062 30.8984C47.5573 30.6172 47.2812 30.2917 47.0781 29.9219C46.8802 29.5521 46.7812 29.1224 46.7812 28.6328C46.7812 28.1589 46.8854 27.7292 47.0938 27.3438C47.3021 26.9531 47.5938 26.6198 47.9688 26.3438C48.3438 26.0625 48.7865 25.8464 49.2969 25.6953C49.8125 25.5443 50.3776 25.4688 50.9922 25.4688C51.8307 25.4688 52.5625 25.6198 53.1875 25.9219C53.8125 26.224 54.2969 26.638 54.6406 27.1641C54.9896 27.6901 55.1641 28.2917 55.1641 28.9688H52.8359C52.8359 28.6354 52.7656 28.3438 52.625 28.0938C52.4896 27.8385 52.2812 27.638 52 27.4922C51.724 27.3464 51.375 27.2734 50.9531 27.2734C50.5469 27.2734 50.2083 27.3359 49.9375 27.4609C49.6667 27.5807 49.4635 27.7448 49.3281 27.9531C49.1927 28.1562 49.125 28.3854 49.125 28.6406C49.125 28.8333 49.1719 29.0078 49.2656 29.1641C49.3646 29.3203 49.5104 29.4661 49.7031 29.6016C49.8958 29.737 50.1328 29.8646 50.4141 29.9844C50.6953 30.1042 51.0208 30.2214 51.3906 30.3359C52.0104 30.5234 52.5547 30.7344 53.0234 30.9688C53.4974 31.2031 53.8932 31.4661 54.2109 31.7578C54.5286 32.0495 54.7682 32.3802 54.9297 32.75C55.0911 33.1198 55.1719 33.5391 55.1719 34.0078C55.1719 34.5026 55.0755 34.9453 54.8828 35.3359C54.6901 35.7266 54.4115 36.0573 54.0469 36.3281C53.6823 36.599 53.2474 36.8047 52.7422 36.9453C52.237 37.0859 51.6719 37.1562 51.0469 37.1562C50.4844 37.1562 49.9297 37.0833 49.3828 36.9375C48.8359 36.7865 48.3385 36.5599 47.8906 36.2578C47.4479 35.9557 47.0938 35.5703 46.8281 35.1016C46.5625 34.6328 46.4297 34.0781 46.4297 33.4375H48.7812C48.7812 33.7917 48.8359 34.0911 48.9453 34.3359C49.0547 34.5807 49.2083 34.7786 49.4062 34.9297C49.6094 35.0807 49.849 35.1901 50.125 35.2578C50.4062 35.3255 50.7135 35.3594 51.0469 35.3594C51.4531 35.3594 51.7865 35.3021 52.0469 35.1875C52.3125 35.0729 52.5078 34.9141 52.6328 34.7109C52.763 34.5078 52.8281 34.2786 52.8281 34.0234Z" fill="#00F0FF"/>
</g>
</g>
<defs>
<filter id="filter0_d_48_254" x="2" y="0" width="77" height="74" filterUnits="userSpaceOnUse" color-interpolation-filters="sRGB">
<feFlood flood-opacity="0" result="BackgroundImageFix"/>
<feColorMatrix in="SourceAlpha" type="matrix" values="0 0 0 0 0 0 0 0 0 0 0 0 0 0 0 0 0 0 127 0" result="hardAlpha"/>
<feOffset dy="7"/>
<feGaussianBlur stdDeviation="2"/>
<feComposite in2="hardAlpha" operator="out"/>
<feColorMatrix type="matrix" values="0 0 0 0 0 0 0 0 0 0 0 0 0 0 0 0 0 0 0.6 0"/>
<feBlend mode="normal" in2="BackgroundImageFix" result="effect1_dropShadow_48_254"/>
<feBlend mode="normal" in="SourceGraphic" in2="effect1_dropShadow_48_254" result="shape"/>
</filter>
<filter id="filter1_d_48_254" x="0.539062" y="4.48875" width="79.6328" height="61.6875" filterUnits="userSpaceOnUse" color-interpolation-filters="sRGB">
<feFlood flood-opacity="0" result="BackgroundImageFix"/>
<feColorMatrix in="SourceAlpha" type="matrix" values="0 0 0 0 0 0 0 0 0 0 0 0 0 0 0 0 0 0 127 0" result="hardAlpha"/>
<feOffset dy="4.02"/>
<feGaussianBlur stdDeviation="12.5"/>
<feComposite in2="hardAlpha" operator="out"/>
<feColorMatrix type="matrix" values="0 0 0 0 0 0 0 0 0 0.94 0 0 0 0 1 0 0 0 1 0"/>
<feBlend mode="normal" in2="BackgroundImageFix" result="effect1_dropShadow_48_254"/>
<feBlend mode="normal" in="SourceGraphic" in2="effect1_dropShadow_48_254" result="shape"/>
</filter>
</defs>
</svg>
