<svg width="81" height="63" viewBox="0 0 81 63" fill="none" xmlns="http://www.w3.org/2000/svg">
<g filter="url(#filter0_d_48_258)">
<path d="M31.9375 30.0234C31.9375 29.8203 31.9062 29.638 31.8438 29.4766C31.7865 29.3099 31.6771 29.1589 31.5156 29.0234C31.3542 28.8828 31.1276 28.7448 30.8359 28.6094C30.5443 28.474 30.1667 28.3333 29.7031 28.1875C29.1875 28.0208 28.6979 27.8333 28.2344 27.625C27.776 27.4167 27.3698 27.1745 27.0156 26.8984C26.6667 26.6172 26.3906 26.2917 26.1875 25.9219C25.9896 25.5521 25.8906 25.1224 25.8906 24.6328C25.8906 24.1589 25.9948 23.7292 26.2031 23.3438C26.4115 22.9531 26.7031 22.6198 27.0781 22.3438C27.4531 22.0625 27.8958 21.8464 28.4062 21.6953C28.9219 21.5443 29.487 21.4688 30.1016 21.4688C30.9401 21.4688 31.6719 21.6198 32.2969 21.9219C32.9219 22.224 33.4062 22.638 33.75 23.1641C34.099 23.6901 34.2734 24.2917 34.2734 24.9688H31.9453C31.9453 24.6354 31.875 24.3438 31.7344 24.0938C31.599 23.8385 31.3906 23.638 31.1094 23.4922C30.8333 23.3464 30.4844 23.2734 30.0625 23.2734C29.6562 23.2734 29.3177 23.3359 29.0469 23.4609C28.776 23.5807 28.5729 23.7448 28.4375 23.9531C28.3021 24.1562 28.2344 24.3854 28.2344 24.6406C28.2344 24.8333 28.2812 25.0078 28.375 25.1641C28.474 25.3203 28.6198 25.4661 28.8125 25.6016C29.0052 25.737 29.2422 25.8646 29.5234 25.9844C29.8047 26.1042 30.1302 26.2214 30.5 26.3359C31.1198 26.5234 31.6641 26.7344 32.1328 26.9688C32.6068 27.2031 33.0026 27.4661 33.3203 27.7578C33.638 28.0495 33.8776 28.3802 34.0391 28.75C34.2005 29.1198 34.2812 29.5391 34.2812 30.0078C34.2812 30.5026 34.1849 30.9453 33.9922 31.3359C33.7995 31.7266 33.5208 32.0573 33.1562 32.3281C32.7917 32.599 32.3568 32.8047 31.8516 32.9453C31.3464 33.0859 30.7812 33.1562 30.1562 33.1562C29.5938 33.1562 29.0391 33.0833 28.4922 32.9375C27.9453 32.7865 27.4479 32.5599 27 32.2578C26.5573 31.9557 26.2031 31.5703 25.9375 31.1016C25.6719 30.6328 25.5391 30.0781 25.5391 29.4375H27.8906C27.8906 29.7917 27.9453 30.0911 28.0547 30.3359C28.1641 30.5807 28.3177 30.7786 28.5156 30.9297C28.7188 31.0807 28.9583 31.1901 29.2344 31.2578C29.5156 31.3255 29.8229 31.3594 30.1562 31.3594C30.5625 31.3594 30.8958 31.3021 31.1562 31.1875C31.4219 31.0729 31.6172 30.9141 31.7422 30.7109C31.8724 30.5078 31.9375 30.2786 31.9375 30.0234ZM45.2188 27.0469V27.5859C45.2188 28.4505 45.1016 29.2266 44.8672 29.9141C44.6328 30.6016 44.3021 31.1875 43.875 31.6719C43.4479 32.151 42.9375 32.5182 42.3438 32.7734C41.7552 33.0286 41.1016 33.1562 40.3828 33.1562C39.6693 33.1562 39.0156 33.0286 38.4219 32.7734C37.8333 32.5182 37.3229 32.151 36.8906 31.6719C36.4583 31.1875 36.1224 30.6016 35.8828 29.9141C35.6484 29.2266 35.5312 28.4505 35.5312 27.5859V27.0469C35.5312 26.1771 35.6484 25.401 35.8828 24.7188C36.1172 24.0312 36.4479 23.4453 36.875 22.9609C37.3073 22.4766 37.8177 22.1068 38.4062 21.8516C39 21.5964 39.6536 21.4688 40.3672 21.4688C41.0859 21.4688 41.7396 21.5964 42.3281 21.8516C42.9219 22.1068 43.4323 22.4766 43.8594 22.9609C44.2917 23.4453 44.625 24.0312 44.8594 24.7188C45.099 25.401 45.2188 26.1771 45.2188 27.0469ZM42.8516 27.5859V27.0312C42.8516 26.4271 42.7969 25.8958 42.6875 25.4375C42.5781 24.9792 42.4167 24.5938 42.2031 24.2812C41.9896 23.9688 41.7292 23.7344 41.4219 23.5781C41.1146 23.4167 40.763 23.3359 40.3672 23.3359C39.9714 23.3359 39.6198 23.4167 39.3125 23.5781C39.0104 23.7344 38.7526 23.9688 38.5391 24.2812C38.3307 24.5938 38.1719 24.9792 38.0625 25.4375C37.9531 25.8958 37.8984 26.4271 37.8984 27.0312V27.5859C37.8984 28.1849 37.9531 28.7161 38.0625 29.1797C38.1719 29.638 38.3333 30.026 38.5469 30.3438C38.7604 30.6562 39.0208 30.8932 39.3281 31.0547C39.6354 31.2161 39.987 31.2969 40.3828 31.2969C40.7786 31.2969 41.1302 31.2161 41.4375 31.0547C41.7448 30.8932 42.0026 30.6562 42.2109 30.3438C42.4193 30.026 42.5781 29.638 42.6875 29.1797C42.7969 28.7161 42.8516 28.1849 42.8516 27.5859ZM52.8281 30.0234C52.8281 29.8203 52.7969 29.638 52.7344 29.4766C52.6771 29.3099 52.5677 29.1589 52.4062 29.0234C52.2448 28.8828 52.0182 28.7448 51.7266 28.6094C51.4349 28.474 51.0573 28.3333 50.5938 28.1875C50.0781 28.0208 49.5885 27.8333 49.125 27.625C48.6667 27.4167 48.2604 27.1745 47.9062 26.8984C47.5573 26.6172 47.2812 26.2917 47.0781 25.9219C46.8802 25.5521 46.7812 25.1224 46.7812 24.6328C46.7812 24.1589 46.8854 23.7292 47.0938 23.3438C47.3021 22.9531 47.5938 22.6198 47.9688 22.3438C48.3438 22.0625 48.7865 21.8464 49.2969 21.6953C49.8125 21.5443 50.3776 21.4688 50.9922 21.4688C51.8307 21.4688 52.5625 21.6198 53.1875 21.9219C53.8125 22.224 54.2969 22.638 54.6406 23.1641C54.9896 23.6901 55.1641 24.2917 55.1641 24.9688H52.8359C52.8359 24.6354 52.7656 24.3438 52.625 24.0938C52.4896 23.8385 52.2812 23.638 52 23.4922C51.724 23.3464 51.375 23.2734 50.9531 23.2734C50.5469 23.2734 50.2083 23.3359 49.9375 23.4609C49.6667 23.5807 49.4635 23.7448 49.3281 23.9531C49.1927 24.1562 49.125 24.3854 49.125 24.6406C49.125 24.8333 49.1719 25.0078 49.2656 25.1641C49.3646 25.3203 49.5104 25.4661 49.7031 25.6016C49.8958 25.737 50.1328 25.8646 50.4141 25.9844C50.6953 26.1042 51.0208 26.2214 51.3906 26.3359C52.0104 26.5234 52.5547 26.7344 53.0234 26.9688C53.4974 27.2031 53.8932 27.4661 54.2109 27.7578C54.5286 28.0495 54.7682 28.3802 54.9297 28.75C55.0911 29.1198 55.1719 29.5391 55.1719 30.0078C55.1719 30.5026 55.0755 30.9453 54.8828 31.3359C54.6901 31.7266 54.4115 32.0573 54.0469 32.3281C53.6823 32.599 53.2474 32.8047 52.7422 32.9453C52.237 33.0859 51.6719 33.1562 51.0469 33.1562C50.4844 33.1562 49.9297 33.0833 49.3828 32.9375C48.8359 32.7865 48.3385 32.5599 47.8906 32.2578C47.4479 31.9557 47.0938 31.5703 46.8281 31.1016C46.5625 30.6328 46.4297 30.0781 46.4297 29.4375H48.7812C48.7812 29.7917 48.8359 30.0911 48.9453 30.3359C49.0547 30.5807 49.2083 30.7786 49.4062 30.9297C49.6094 31.0807 49.849 31.1901 50.125 31.2578C50.4062 31.3255 50.7135 31.3594 51.0469 31.3594C51.4531 31.3594 51.7865 31.3021 52.0469 31.1875C52.3125 31.0729 52.5078 30.9141 52.6328 30.7109C52.763 30.5078 52.8281 30.2786 52.8281 30.0234Z" fill="#00F0FF"/>
</g>
<defs>
<filter id="filter0_d_48_258" x="0.539062" y="0.48875" width="79.6328" height="61.6875" filterUnits="userSpaceOnUse" color-interpolation-filters="sRGB">
<feFlood flood-opacity="0" result="BackgroundImageFix"/>
<feColorMatrix in="SourceAlpha" type="matrix" values="0 0 0 0 0 0 0 0 0 0 0 0 0 0 0 0 0 0 127 0" result="hardAlpha"/>
<feOffset dy="4.02"/>
<feGaussianBlur stdDeviation="12.5"/>
<feComposite in2="hardAlpha" operator="out"/>
<feColorMatrix type="matrix" values="0 0 0 0 0 0 0 0 0 0.94 0 0 0 0 1 0 0 0 1 0"/>
<feBlend mode="normal" in2="BackgroundImageFix" result="effect1_dropShadow_48_258"/>
<feBlend mode="normal" in="SourceGraphic" in2="effect1_dropShadow_48_258" result="shape"/>
</filter>
</defs>
</svg>
